<?xml version="1.0" encoding="UTF-8"?><svg id="Layer_2" xmlns="http://www.w3.org/2000/svg" viewBox="0 0 319.81 371.48"><defs><style>.cls-1{fill:gray;}</style></defs><g id="Layer_1-2"><path class="cls-1" d="M139.15,311.14c0-2.48,0-4.95,0-7.43,0-93.75-.01-187.5,.02-281.26,0-13.78,9.08-22.94,22.02-22.44,10.22,.39,18.89,8.71,19.62,18.92,.18,2.52,.09,5.07,.09,7.6,0,92.39,0,184.78,0,277.16v9.15c2.82-2.44,4.55-3.77,6.08-5.3,31.72-31.68,63.49-63.32,95.08-95.13,6.48-6.52,13.81-9.54,22.7-7.12,13.75,3.75,19.48,20.33,11.23,32.03-1.56,2.21-3.55,4.14-5.47,6.06-36.24,36.26-72.49,72.51-108.76,108.75-25.83,25.81-57.65,25.79-83.49-.03-36.68-36.65-73.32-73.34-110.03-109.95C3.69,237.6,.15,232.65,0,225.95c-.18-8.83,3.65-15.62,11.5-19.46,7.52-3.67,15.16-3.14,22.06,2.02,2.02,1.51,3.77,3.37,5.57,5.16,31.17,31.13,62.32,62.28,93.49,93.41,1.62,1.62,3.31,3.15,4.97,4.72l1.56-.67Z"/></g></svg>