<?xml version="1.0" encoding="UTF-8"?><svg id="Layer_2" xmlns="http://www.w3.org/2000/svg" viewBox="0 0 366.43 428.9"><g id="Layer_1-2"><g><path d="M19.86,85.78c-2.52,0-4.61,.02-6.7,0C5.21,85.67-.1,80.87,0,73.9c.1-6.79,5.31-11.48,13.02-11.49,21.11-.05,42.22-.02,63.34-.02,5.5,0,11,0,17.17,0,0-5.72,0-11.17,0-16.62C93.56,18.06,111.56,.03,139.23,.01c29.4-.01,58.79-.02,88.19,0,27.31,.02,45.41,18.15,45.45,45.51,0,5.36,0,10.71,0,16.86,1.85,0,3.54,0,5.24,0,25.01,0,50.02-.02,75.03,.01,6.85,0,11.41,3.21,12.91,8.86,1.83,6.88-3.23,13.84-10.62,14.43-2.73,.22-5.5,.04-8.81,.04-.45,4.69-.93,9.13-1.29,13.58-3.71,46.12-7.36,92.24-11.09,138.35-4.12,50.97-8.08,101.95-12.59,152.89-1.95,22-20.34,38.13-42.59,38.27-28.09,.18-56.19,.05-84.29,.05-34.92,0-69.83,.01-104.75,0-25.43-.01-42.94-15.1-45.55-40.48-2.67-25.99-4.35-52.09-6.46-78.14-2.82-34.79-5.64-69.57-8.44-104.36-2.75-34.14-5.46-68.29-8.19-102.43-.46-5.79-.99-11.58-1.51-17.66Zm23.15,.26c0,.98-.06,1.76,0,2.53,2.66,32.19,5.33,64.38,8,96.57,2.8,33.81,5.62,67.61,8.41,101.42,2.71,32.84,5.29,65.69,8.16,98.51,1.23,14.09,8.57,20.39,22.76,20.4,52.61,0,105.23,0,157.84,0,10.23,0,20.46,.08,30.69-.03,8.78-.1,16-5.08,18.51-13.17,1.14-3.66,1.42-7.63,1.75-11.49,1.83-21.51,3.54-43.03,5.32-64.54,2.78-33.65,5.58-67.29,8.37-100.93,2.46-29.6,4.92-59.2,7.37-88.8,1.11-13.39,2.18-26.78,3.3-40.45H43.01Zm206.34-23.75c0-7.54,.45-14.68-.11-21.75-.75-9.43-8.81-16.99-18.29-17.05-31.83-.19-63.67-.17-95.5,0-8.28,.04-15.99,5.69-17.4,13.77-1.42,8.14-1.05,16.6-1.46,25.03H249.35Z"/><path d="M132.52,245.58c0,25.64-.02,51.28,.01,76.92,0,4.97-1.84,8.9-6.21,11.32-4.03,2.23-8.15,1.97-11.97-.62-3.64-2.46-5.24-6.02-5.23-10.39,.03-8.11,0-16.23,0-24.34,0-42.19,0-84.39,0-126.58,0-1.46-.05-2.92,.03-4.38,.38-6.58,5.26-11.44,11.51-11.52,6.45-.09,11.65,4.85,11.78,11.7,.19,9.73,.06,19.47,.06,29.21,0,16.23,0,32.46,0,48.69Z"/><path d="M171.51,245.62c0-24.83,0-49.66,0-74.49,0-1.62-.08-3.26,.12-4.86,.76-5.94,5.82-10.34,11.69-10.28,5.68,.06,10.58,4.29,11.42,10.03,.26,1.75,.16,3.56,.16,5.35,0,49.5,0,98.99,0,148.49,0,1.62,.08,3.26-.1,4.86-.68,5.99-5.59,10.47-11.46,10.54-6.03,.07-11.14-4.58-11.75-10.76-.14-1.45-.07-2.92-.07-4.38,0-24.83,0-49.66,0-74.49Z"/><path d="M233.89,245.55c0-25.32-.09-50.63,.11-75.95,.02-3.05,.95-6.52,2.61-9.04,2.71-4.13,7.14-5.47,12.03-4.1,4.85,1.36,7.61,4.76,8.48,9.65,.28,1.58,.15,3.24,.15,4.86,0,49.82,0,99.64,0,149.47,0,.65,0,1.3,0,1.95-.15,7.64-4.86,12.85-11.64,12.89-6.78,.03-11.71-5.2-11.72-12.79-.06-25.64-.02-51.28-.02-76.92Z"/></g></g></svg>