<?xml version="1.0" encoding="UTF-8"?><svg id="Layer_1" xmlns="http://www.w3.org/2000/svg" viewBox="0 0 384 384"><path d="M0,349.5c0-67.5,0-135,0-202.5,.26-.95,.56-1.89,.78-2.86,2.51-11.28,8.56-20.08,18.4-26.22,6.88-4.3,14.46-5.98,22.49-5.98,4.69,0,9.38,0,14.49,0,0-6.3-.15-12.02,.03-17.74,.34-10.76,4.63-19.84,12.4-27.21,7.89-7.47,17.38-11.02,28.25-10.93,4.94,.04,9.89,0,15.11,0,0-5.45-.06-10.31,.01-15.17,.2-14.03,5.49-25.75,17.3-33.49C134.52,3.95,141.04,2.41,147,0c67.5,0,135,0,202.5,0,.67,.25,1.32,.58,2.01,.73,15.19,3.38,25.36,12.43,30.52,27.09,.77,2.19,1.32,4.45,1.97,6.68V237c-.23,.69-.56,1.37-.69,2.09-1.88,9.99-6.81,18.13-14.78,24.42-7.67,6.05-16.52,8.55-26.18,8.56-4.69,0-9.39,0-14.5,0,0,6.29,.19,12.02-.04,17.73-.48,12.2-5.73,22.08-15.23,29.65-7.52,5.99-16.2,8.63-25.78,8.5-4.82-.06-9.64-.01-14.73-.01,0,5.45,.09,10.31-.02,15.17-.34,16.04-7.2,28.4-21.39,36.11-4.18,2.27-9.08,3.23-13.65,4.78H34.5c-.79-.26-1.57-.59-2.37-.78-14.94-3.56-25.08-12.49-30.17-27.03-.77-2.19-1.31-4.45-1.96-6.68ZM136.08,128.06c-31.74,0-63.47-.06-95.21,.03-14.66,.04-24.87,10.08-24.89,24.7-.09,63.48-.09,126.95,0,190.43,.02,14.54,10.32,24.78,24.91,24.8,63.35,.08,126.7,.08,190.06,0,14.88-.02,24.85-10.14,24.98-25.02,.08-9.24,.02-18.49,.02-27.73,0-53.86,0-107.71-.03-161.57,0-2.36-.07-4.78-.6-7.06-2.68-11.49-11.92-18.55-24.39-18.57-31.61-.05-63.23-.02-94.84-.02Zm-7.75-72h5.09c50.61,0,101.22-.06,151.83,.09,5.17,.02,10.59,.51,15.47,2.1,17.2,5.61,27.21,20.49,27.22,39.64,.03,50.98,.01,101.97,.01,152.95,0,1.58,0,3.17,0,5.09,4.98,0,9.46,.01,13.95,0,16.32-.04,26.17-9.83,26.17-26.12,.02-62.61,.02-125.21-.03-187.82,0-2.84-.29-5.78-1.03-8.51-3.01-11.04-12.32-17.55-24.89-17.55-62.73-.02-125.46,0-188.19,0-1.37,0-2.75,.03-4.11,.19-11.2,1.33-20.2,9.32-21.34,19.89-.69,6.41-.13,12.95-.13,20.03Zm143.74,255.94c4.85,0,9.32,0,13.79,0,16.27-.02,26.15-9.87,26.15-26.14,0-62.61,0-125.23,0-187.84,0-16.07-9.91-26.01-25.89-26.02-34.12-.01-68.24,0-102.36,0-29.12,0-58.24-.03-87.36,.02-10.97,.02-20.7,6.49-23.04,16.79-1.67,7.38-1.29,15.22-1.84,23.12,2.51,0,4,0,5.49,0,50.74,0,101.48-.07,152.22,.11,5.41,.02,11.07,.74,16.17,2.45,16.61,5.57,26.64,20.7,26.65,39.39,.04,50.99,.01,101.98,.02,152.97v5.14Z"/></svg>