<?xml version="1.0" encoding="utf-8"?>
<!-- Generator: Adobe Illustrator 26.5.1, SVG Export Plug-In . SVG Version: 6.00 Build 0)  -->
<svg version="1.1" id="Layer_1" xmlns="http://www.w3.org/2000/svg" xmlns:xlink="http://www.w3.org/1999/xlink" x="0px" y="0px"
	 viewBox="0 0 512 512" style="enable-background:new 0 0 512 512;" xml:space="preserve">
<path d="M451.8,30.1c0,16.7-13.5,30.1-30.1,30.1H30.1C13.5,60.2,0,46.8,0,30.1S13.5,0,30.1,0h391.5C438.3,0,451.8,13.5,451.8,30.1z
	 M331.3,150.6H30.1C13.5,150.6,0,164.1,0,180.7s13.5,30.1,30.1,30.1h301.2c16.6,0,30.1-13.5,30.1-30.1S347.9,150.6,331.3,150.6z
	 M240.9,301.2H30.1C13.5,301.2,0,314.6,0,331.3c0,16.7,13.5,30.1,30.1,30.1h210.8c16.6,0,30.1-13.5,30.1-30.1
	C271.1,314.6,257.6,301.2,240.9,301.2z M150.6,451.8H30.1C13.5,451.8,0,465.2,0,481.9C0,498.5,13.5,512,30.1,512h120.5
	c16.6,0,30.1-13.5,30.1-30.1C180.7,465.2,167.2,451.8,150.6,451.8z"/>
</svg>
