<?xml version="1.0" encoding="utf-8"?>
<!-- Generator: Adobe Illustrator 26.5.1, SVG Export Plug-In . SVG Version: 6.00 Build 0)  -->
<svg version="1.1" id="Layer_1" xmlns="http://www.w3.org/2000/svg" xmlns:xlink="http://www.w3.org/1999/xlink" x="0px" y="0px"
	 viewBox="0 0 512 512" style="enable-background:new 0 0 512 512;" xml:space="preserve">
<path d="M512,21.3c0,11.8-9.6,21.3-21.3,21.3H213.3c-11.8,0-21.3-9.5-21.3-21.3S201.6,0,213.3,0h277.3C502.4,0,512,9.5,512,21.3z
	 M426.7,106.7H213.3c-11.8,0-21.3,9.5-21.3,21.3s9.6,21.3,21.3,21.3h213.3c11.8,0,21.3-9.5,21.3-21.3S438.4,106.7,426.7,106.7z
	 M362.7,213.3H213.3c-11.8,0-21.3,9.5-21.3,21.3s9.6,21.3,21.3,21.3h149.3c11.8,0,21.3-9.5,21.3-21.3S374.4,213.3,362.7,213.3z
	 M298.7,320h-85.3c-11.8,0-21.3,9.5-21.3,21.3c0,11.8,9.6,21.3,21.3,21.3h85.3c11.8,0,21.3-9.5,21.3-21.3S310.4,320,298.7,320z
	 M164.4,411.6L128,448V21.3C128,9.5,118.4,0,106.7,0S85.3,9.5,85.3,21.3V448l-36.4-36.4c-8.3-8.3-21.8-8.3-30.2,0
	c-8.3,8.3-8.3,21.8,0,30.2l57.7,57.7c8.3,8.3,19.2,12.5,30.2,12.5s21.8-4.2,30.2-12.5l57.7-57.7c8.3-8.3,8.3-21.8,0-30.2
	S172.8,403.2,164.4,411.6L164.4,411.6z"/>
</svg>
