<?xml version="1.0" encoding="UTF-8"?><svg id="Layer_2" xmlns="http://www.w3.org/2000/svg" viewBox="0 0 589.42 226.8"><defs><style>.cls-1{fill:#4895ef;}</style></defs><g id="Layer_1-2"><path class="cls-1" d="M294.68,226.75c-78.96,0-157.92,.03-236.88-.01-29.56-.01-51.83-18.55-57.18-47.45-.35-1.9-.55-3.87-.55-5.8C.02,122.61-.01,71.73,0,20.86,0,12.47,3.99,6.28,11.33,2.48c7.15-3.7,14.37-3.25,21.07,1.21,6.71,4.47,9.38,10.99,9.36,19-.09,47.56-.04,95.12-.04,142.69,0,14.75,4.86,19.64,19.54,19.64,155.58,0,311.16,0,466.74,0,14.72,0,19.58-4.87,19.58-19.6,0-47.95-.05-95.9,.05-143.86,.03-15.29,14.3-25.31,28.21-20.1,7.94,2.98,13.41,10.21,13.42,18.77,.07,51.46,.4,102.93-.18,154.38-.31,27.77-25.81,51.86-54.03,52.03-42.31,.26-84.61,.09-126.92,.1-37.82,0-75.64,0-113.47,0Z"/></g></svg>